<svg id="bell-Regular" xmlns="http://www.w3.org/2000/svg" width="24" height="24" viewBox="0 0 24 24">
  <rect id="Path" width="24" height="24" fill="rgba(255,255,255,0)"/>
  <path id="bell-Regular_1_" d="M223.456,1169.646l-1.106-1.846a4.244,4.244,0,0,1-.6-2.184v-2.627a6.745,6.745,0,0,0-13.49,0v2.627a4.253,4.253,0,0,1-.6,2.184l-1.106,1.846a2.05,2.05,0,0,0,1.759,3.1h3.98c-.008.084-.033.165-.033.25a2.75,2.75,0,0,0,5.5,0c0-.085-.025-.166-.033-.25h3.98a2.048,2.048,0,0,0,1.757-3.1ZM216.25,1173a1.25,1.25,0,0,1-2.5,0,1.233,1.233,0,0,1,.033-.25h2.434A1.234,1.234,0,0,1,216.25,1173Zm5.927-2.03a.541.541,0,0,1-.48.279H208.3a.55.55,0,0,1-.473-.832l1.106-1.846a5.742,5.742,0,0,0,.818-2.955v-2.627a5.245,5.245,0,0,1,10.49,0v2.627a5.752,5.752,0,0,0,.818,2.955l1.106,1.846A.538.538,0,0,1,222.177,1170.97Z" transform="translate(-203 -1154)" fill="#ce0c3d"/>
</svg>
