<svg xmlns="http://www.w3.org/2000/svg" xmlns:xlink="http://www.w3.org/1999/xlink" width="43" height="43" viewBox="0 0 43 43">
  <defs>
    <clipPath id="clip-path">
      <rect id="Rectangle_475" data-name="Rectangle 475" width="43" height="43" rx="6" transform="translate(30 335)" fill="#ce0c3d"/>
    </clipPath>
  </defs>
  <g id="child_care" data-name="child care" transform="translate(-30 -335)" clip-path="url(#clip-path)">
    <g id="child_care-2" data-name="child care" transform="translate(28.728 333.664)">
      <g id="Outline">
        <g id="Outline-2" data-name="Outline">
          <path id="Path_46293" data-name="Path 46293" d="M13.95,15.506a2.985,2.985,0,0,0,2.088.94,3.164,3.164,0,0,0,2.125-.928.714.714,0,1,0-.962-1.054,1.451,1.451,0,0,1-2.255.015.714.714,0,0,0-1,1.024Z" fill="#ce0c3d"/>
          <path id="Path_46294" data-name="Path 46294" d="M21.036,14.3a3.164,3.164,0,0,0,2.125-.928.714.714,0,1,0-.962-1.054,1.45,1.45,0,0,1-2.255.015.714.714,0,1,0-1,1.024A2.985,2.985,0,0,0,21.036,14.3Z" fill="#ce0c3d"/>
          <path id="Path_46295" data-name="Path 46295" d="M11.04,14.3a3.164,3.164,0,0,0,2.125-.928.714.714,0,1,0-.962-1.054,1.45,1.45,0,0,1-2.255.015.714.714,0,1,0-1,1.024A2.985,2.985,0,0,0,11.04,14.3Z" fill="#ce0c3d"/>
          <circle id="Ellipse_97" data-name="Ellipse 97" cx="0.714" cy="0.714" r="0.714" transform="translate(12.852 6.426)" fill="#ce0c3d"/>
          <path id="Path_46296" data-name="Path 46296" d="M43.555,6.426h-3.19l3.619-3.791a.719.719,0,0,0-.516-1.207h-4.91a.714.714,0,1,0,0,1.428H41.8L38.18,6.647a.714.714,0,0,0,.52,1.207h4.855a.714.714,0,1,0,0-1.428Z" fill="#ce0c3d"/>
          <path id="Path_46297" data-name="Path 46297" d="M36.415,12.138h-1.8l2.256-2.363a.719.719,0,0,0-.517-1.207H32.845a.714.714,0,0,0,0,1.428h1.839L32.428,12.36a.719.719,0,0,0,.517,1.207h3.47a.714.714,0,1,0,0-1.428Z" fill="#ce0c3d"/>
          <path id="Path_46298" data-name="Path 46298" d="M44.2,26.934a1.374,1.374,0,0,0-1.714-1.251c-3.552.807-6.712-1.6-7.911-2.67a1.382,1.382,0,0,0-1.844,0,10.773,10.773,0,0,1-5.988,2.816,10.541,10.541,0,0,0-.977-3.9,9.036,9.036,0,0,0,1.578-2.693,4.65,4.65,0,0,0,3.517-4.34A4.653,4.653,0,0,0,27.55,10.62a11.764,11.764,0,0,0-22.97,0,4.653,4.653,0,0,0-3.308,4.275,4.65,4.65,0,0,0,3.517,4.34,9.037,9.037,0,0,0,1.578,2.693,10.567,10.567,0,0,0-1.012,4.491v7.14a10.7,10.7,0,0,0,20.256,4.827A16.565,16.565,0,0,0,33.1,44.158a1.4,1.4,0,0,0,1.091,0C43.93,40.035,44.564,32.353,44.2,26.934ZM27.8,12.281a3.09,3.09,0,0,1,1.631,2.613,3.075,3.075,0,0,1-1.664,2.638,7.94,7.94,0,0,0,.081-1.1V13.217C27.847,12.9,27.824,12.59,27.8,12.281ZM2.7,14.893a3.09,3.09,0,0,1,1.631-2.612c-.024.31-.047.62-.047.937v3.219a7.94,7.94,0,0,0,.081,1.095A3.075,3.075,0,0,1,2.7,14.893Zm3.012,1.543V13.217A10.362,10.362,0,0,1,16.058,2.83a1.959,1.959,0,0,1,2.03,1.928,1.9,1.9,0,0,1-1.9,1.9.714.714,0,0,0,0,1.428,3.333,3.333,0,0,0,3.329-3.329,3.277,3.277,0,0,0-.346-1.447,10.4,10.4,0,0,1,7.248,9.907v3.219c0,4.556-4.641,8.269-10.353,8.269S5.712,20.992,5.712,16.436Zm17.945,9.487a1.368,1.368,0,0,0-.55,1.007c-.021.308-.038.624-.051.946a33.516,33.516,0,0,1-9.935,3.9,31.551,31.551,0,0,1-6.338-3.583V26.419a9.145,9.145,0,0,1,.656-3.4,13.01,13.01,0,0,0,8.626,3.115,13.01,13.01,0,0,0,8.625-3.113,9.107,9.107,0,0,1,.618,2.753,1.9,1.9,0,0,0-1.652.15Zm.052,8.385a31.083,31.083,0,0,1-8.279-1.635,35.233,35.233,0,0,0,7.608-3.137,18.7,18.7,0,0,0,.671,4.772Zm-7.644,8.533a9.293,9.293,0,0,1-9.282-9.282V29.944a33.789,33.789,0,0,0,17.426,5.817q.226.562.508,1.117A9.278,9.278,0,0,1,16.065,42.841Zm17.6,0c-8.8-3.726-9.5-10.41-9.169-15.769,4.178.958,7.816-1.776,9.126-3,1.357,1.218,4.969,3.939,9.154,3C43.134,32.477,42.407,39.128,33.663,42.841Z" fill="#ce0c3d"/>
          <path id="Path_46299" data-name="Path 46299" d="M39.215,30.02a2.167,2.167,0,0,0-3.048-.083L32.779,33.15l-.909-.909a2.206,2.206,0,0,0-3.048,0,2.157,2.157,0,0,0,0,3.047l2.392,2.393a2.142,2.142,0,0,0,3.007.041l4.912-4.654a2.166,2.166,0,0,0,.082-3.049ZM38.15,32.03,33.24,36.684a.725.725,0,0,1-1.015-.014l-2.393-2.393a.728.728,0,0,1,1.029-1.028l1.4,1.4a.714.714,0,0,0,1,.014l3.893-3.689a.728.728,0,1,1,1,1.056Z" fill="#ce0c3d"/>
        </g>
      </g>
    </g>
  </g>
</svg>
