<svg xmlns="http://www.w3.org/2000/svg" xmlns:xlink="http://www.w3.org/1999/xlink" width="70" height="70" viewBox="0 0 70 70">
  <defs>
    <clipPath id="clip-path">
      <rect id="Rectangle_475" data-name="Rectangle 475" width="43" height="43" rx="6" transform="translate(30 335)" fill="#ce0c3d"/>
    </clipPath>
  </defs>
  <g id="cleaning_with_background" data-name="cleaning with background" transform="translate(-16 -321)">
    <rect id="Rectangle_474" data-name="Rectangle 474" width="70" height="70" rx="6" transform="translate(16 321)" fill="#ce0c3d" opacity="0.05"/>
    <g id="cleaning" clip-path="url(#clip-path)">
      <g id="svgexport-6_3_" data-name="svgexport-6 (3)" transform="translate(29.308 334.306)">
        <g id="Group_74472" data-name="Group 74472">
          <path id="Path_46309" data-name="Path 46309" d="M39.4,35.6a9.825,9.825,0,0,1-.223-1.718,18.489,18.489,0,0,0-.958-5.133c-.294-.761-.906-2.206-1.5-3.6-.656-1.55-1.473-3.479-1.563-3.807-.345-1.252-.71-2.744-1.063-4.186-.61-2.49-1.185-4.841-1.7-6.2-.467-1.241-.95-1.892-1.563-2.112a1.518,1.518,0,0,0-1.295.172c-1.1.634-.924,2.827-.517,6.649.1.914.226,2.119.26,3a33.23,33.23,0,0,1-1.405-3.789c-1.422-4.5-2.206-6.065-3.223-6.461a1.378,1.378,0,0,0-1.225.112c-1.884,1.084-1.229,3.072.077,7.034.239.72.255.792.72,2.157.3.881.672,1.976.862,2.744-.743-1-1.843-2.949-2.546-4.169-.555-.957-1.024-1.782-1.427-2.489-1.7-2.977-2.207-3.875-3.046-4.1a1.6,1.6,0,0,0-1.236.236,1.912,1.912,0,0,0-.956,1.17c-.34,1.269.613,3.1,3.035,7.28a35.761,35.761,0,0,1,2.15,4.363A29.307,29.307,0,0,1,18.719,20.1c-2-2.446-3.577-4.377-4.946-3.588a1.878,1.878,0,0,0-.908,1.154,3.06,3.06,0,0,0,.491,2.311c.286.494,1.1,1.563,2.232,3.043,1.713,2.243,5.106,6.686,5.7,8.271a17.663,17.663,0,0,1-2.541-1.647c-2.081-1.507-4.23-3.066-5.681-2.231a2.346,2.346,0,0,0-1.23,1.5c-.431,1.921,1.224,1.887,5.013,5.432a34.457,34.457,0,0,0,6.005,4.887c2.622,1.629,5.934,2.136,6.341,2.479a9.415,9.415,0,0,1,.661,1.508.694.694,0,0,0,1.319-.429,10.6,10.6,0,0,0-.78-1.775c-.653-1.127-3.85-1.123-6.809-2.962a33.835,33.835,0,0,1-5.79-4.723c-1.334-1.248-3.968-3.291-4.563-3.748a.61.61,0,0,1-.043-.375,1.133,1.133,0,0,1,.566-.59c.671-.386,2.865,1.2,4.176,2.153,1.931,1.4,3.327,2.412,4.339,1.828a.972.972,0,0,0,.469-.666c.248-1.237-1.666-4.007-6.052-9.749-1.016-1.33-1.893-2.479-2.135-2.9a1.888,1.888,0,0,1-.35-1.256.49.49,0,0,1,.212-.295h0c.575,0,2.3,2.113,3.228,3.248,1.917,2.347,3.432,4.2,4.725,3.454a.852.852,0,0,0,.357-.472c.3-1.131-2.581-6.215-2.611-6.266-1.827-3.154-3.1-5.447-2.9-6.226.015-.058.047-.177.308-.327.126-.072.184-.091.183-.1a16.325,16.325,0,0,1,2.2,3.45c.4.709.875,1.537,1.432,2.5,1.94,3.3,3.329,6.147,4.71,5.353,1.013-.583.472-2.177-.513-5.07-.523-1.538-.4-1.185-.716-2.146-1.221-3.7-1.567-4.9-.675-5.419,1.321.376,3.237,10.459,5.134,11.2a.868.868,0,0,0,.764-.053c.836-.48.713-1.982.356-5.333-.18-1.688-.515-4.829-.172-5.3a1.316,1.316,0,0,1,.138-.067c.033.016.313.187.731,1.295.484,1.284,1.077,3.7,1.649,6.043.356,1.452.723,2.954,1.074,4.226.107.388.684,1.762,1.623,3.978.587,1.387,1.194,2.821,1.481,3.563A17.114,17.114,0,0,1,37.8,34a5.9,5.9,0,0,0,.494,2.438l4.176,4.927a.693.693,0,0,0,1.058-.9Z" fill="#ce0c3d"/>
          <path id="Path_46310" data-name="Path 46310" d="M22.14,40.316a44.2,44.2,0,0,1-8.324,1.958c-.086-.971-.215-1.934-.386-2.873a.694.694,0,1,0-1.365.25,29.989,29.989,0,0,1,.419,3.392.7.7,0,0,0,.693.647,38.127,38.127,0,0,0,9.38-2.051.694.694,0,1,0-.417-1.323Z" fill="#ce0c3d"/>
          <path id="Path_46311" data-name="Path 46311" d="M42.033,27.419a18.351,18.351,0,0,1-3.921-7.509c-.44-1.449-.906-3.563-1.4-5.8C35.576,8.943,34.286,3.09,32.426.934a.693.693,0,0,0-.94-.1c-2.794,2.1-6.116,2.716-9.328,3.317A28.075,28.075,0,0,0,14.9,6.2,36.319,36.319,0,0,0,9.858,9.7c-2.84,2.179-6.059,4.649-8.706,5.6a.694.694,0,0,0-.457.7c.2,2.961,2.092,5.638,4.283,8.737a43.175,43.175,0,0,1,5.794,10.184.694.694,0,0,0,1.3-.479A44.293,44.293,0,0,0,6.11,23.934C4.175,21.195,2.487,18.806,2.133,16.4c2.73-1.128,5.823-3.5,8.57-5.608a36.483,36.483,0,0,1,4.8-3.354,26.625,26.625,0,0,1,6.907-1.93c3.162-.591,6.423-1.2,9.336-3.166,1.46,2.29,2.644,7.669,3.611,12.059.5,2.266.97,4.407,1.427,5.907a19.634,19.634,0,0,0,4.155,7.961c.37.472.771.985,1.215,1.577A9.9,9.9,0,0,1,40.32,31.74a.693.693,0,1,0,.879,1.072,10.092,10.092,0,0,0,2.4-2.647.693.693,0,0,0-.044-.755c-.565-.77-1.067-1.41-1.521-1.99Z" fill="#ce0c3d"/>
          <path id="Path_46312" data-name="Path 46312" d="M11.354,36.805,8.715,35.75a1.391,1.391,0,0,1-.773-.772L6.886,32.338a.694.694,0,0,0-1.288,0L4.54,34.978a1.391,1.391,0,0,1-.773.772L1.13,36.805a.694.694,0,0,0,0,1.289l2.639,1.055a1.391,1.391,0,0,1,.773.772L5.6,42.561a.694.694,0,0,0,1.288,0L7.943,39.92a1.391,1.391,0,0,1,.773-.772l2.638-1.055a.694.694,0,0,0,0-1.289ZM8.2,37.861a2.783,2.783,0,0,0-1.546,1.544l-.413,1.033-.413-1.032a2.781,2.781,0,0,0-1.545-1.545l-1.028-.411,1.028-.411a2.781,2.781,0,0,0,1.546-1.544l.413-1.033.413,1.032A2.782,2.782,0,0,0,8.2,37.038l1.028.411Z" fill="#ce0c3d"/>
          <path id="Path_46313" data-name="Path 46313" d="M35.805,5.5l1.884.753a.8.8,0,0,1,.442.441l.755,1.886a.694.694,0,0,0,1.288,0l.755-1.886a.791.791,0,0,1,.442-.441L43.255,5.5a.694.694,0,0,0,0-1.289L41.37,3.457a.8.8,0,0,1-.442-.441L40.174,1.13a.694.694,0,0,0-1.288,0l-.755,1.886a.791.791,0,0,1-.442.441l-1.884.753a.694.694,0,0,0,0,1.289Zm2.4-.754A2.343,2.343,0,0,0,39.53,3.254a2.323,2.323,0,0,0,1.326,1.491l.273.11-.274.11A2.339,2.339,0,0,0,39.53,6.455,2.323,2.323,0,0,0,38.2,4.964l-.273-.11Z" fill="#ce0c3d"/>
          <path id="Path_46314" data-name="Path 46314" d="M1.13,6.192l2.262.9A1.1,1.1,0,0,1,4,7.7L4.9,9.967a.693.693,0,0,0,1.287,0L7.1,7.7A1.092,1.092,0,0,1,7.7,7.1l2.262-.9a.694.694,0,0,0,0-1.289L7.7,4A1.1,1.1,0,0,1,7.1,3.393L6.192,1.129a.693.693,0,0,0-1.287,0L4,3.393A1.1,1.1,0,0,1,3.391,4L1.13,4.9a.694.694,0,0,0,0,1.289Zm2.776-.9a2.489,2.489,0,0,0,1.38-1.379l.262-.655.262.655A2.489,2.489,0,0,0,7.19,5.288l.651.26-.651.26A2.489,2.489,0,0,0,5.81,7.188l-.262.655-.262-.655a2.489,2.489,0,0,0-1.38-1.379l-.651-.26Z" fill="#ce0c3d"/>
        </g>
      </g>
    </g>
  </g>
</svg>
