<svg id="filter-Regular" xmlns="http://www.w3.org/2000/svg" width="25" height="25" viewBox="0 0 25 25">
  <rect id="Path" width="25" height="25" fill="rgba(255,255,255,0)"/>
  <path id="filter-Regular_1_" d="M366.135,1156.25H352.594a2.346,2.346,0,0,0-2.344,2.344v2.173a1.808,1.808,0,0,0,.534,1.289l5.334,5.334a1.294,1.294,0,0,1,.381.921v7.471a.781.781,0,0,0,1.25.625l4.167-3.125a.785.785,0,0,0,.312-.625v-4.345a1.294,1.294,0,0,1,.381-.921l5.334-5.334a1.81,1.81,0,0,0,.534-1.289v-2.173A2.346,2.346,0,0,0,366.135,1156.25Zm-13.542,1.563h13.542a.782.782,0,0,1,.781.781v1.823h-15.1v-1.823A.782.782,0,0,1,352.594,1157.813Zm8.913,8.473a2.845,2.845,0,0,0-.84,2.026v3.954l-2.6,1.953v-5.907a2.845,2.845,0,0,0-.84-2.026l-4.306-4.306h12.895Z" transform="translate(-346.865 -1153.906)" fill="#ce0c3d"/>
</svg>
