<svg xmlns="http://www.w3.org/2000/svg" xmlns:xlink="http://www.w3.org/1999/xlink" width="80" height="80" viewBox="0 0 80 80">
  <defs>
    <clipPath id="clip-path">
      <rect id="photo-1512621776951-a57141f2eefd_1_" data-name="photo-1512621776951-a57141f2eefd (1)" width="60" height="60" rx="30" transform="translate(255 29)" fill="#ce0c3d"/>
    </clipPath>
  </defs>
  <g id="girl_vector" data-name="girl vector" transform="translate(-255 -9)">
    <rect id="photo-1512621776951-a57141f2eefd_1_2" data-name="photo-1512621776951-a57141f2eefd (1)" width="80" height="80" rx="40" transform="translate(255 9)" fill="#ce0c3d" opacity="0.1"/>
    <g id="girl" transform="translate(10 -10)" clip-path="url(#clip-path)">
      <g id="svgexport-10" transform="translate(262.679 29)">
        <g id="Group_74462" data-name="Group 74462">
          <g id="Group_74461" data-name="Group 74461">
            <path id="Path_46283" data-name="Path 46283" d="M23.679,35.089c2.377.357,5.279-.19,8.449-.379a7.392,7.392,0,0,0,3.65-.011c8.248.4,14.676,2.734,14.676-14.051C50.454,9.252,43.054,0,33.925,0S17.4,9.252,17.4,20.647c0,9.163,1.752,12.723,4.6,13.962A6.1,6.1,0,0,0,23.679,35.089ZM21.045,14.208c1.73,2.4,6.217,1.886,10.089-1.15a14.752,14.752,0,0,0,2.533-2.545,2.235,2.235,0,0,1,.268.045,8.923,8.923,0,0,1,1.116.324,10.267,10.267,0,0,1,1.06.513,9.686,9.686,0,0,1,.971.636,8.9,8.9,0,0,1,.826.748,5.891,5.891,0,0,1,.658.77,7.563,7.563,0,0,1,.491.725,3.4,3.4,0,0,1,.335.6c.167.346.268.547.268.547s-.033-.212-.1-.6a5.536,5.536,0,0,0-.145-.692,5.785,5.785,0,0,0-.279-.893,8.574,8.574,0,0,0-.446-1.016,11.5,11.5,0,0,0-.647-1.083,12.5,12.5,0,0,0-.871-1.06,11.153,11.153,0,0,0-1.06-.982,11.1,11.1,0,0,0-1.1-.725,8.719,8.719,0,0,0,.413-1.038,13.119,13.119,0,0,1,3.929,2.545c4.141,4.141,2.511,8.951,5.7,5.77A8.584,8.584,0,0,0,46.291,14.1a1.411,1.411,0,0,1,.313.011,1.467,1.467,0,0,1,.871.714,3.792,3.792,0,0,1,.268,2.824,3.225,3.225,0,0,1-2.254,2.589l-.67.089-.178.658C43.054,26.73,38.78,32.846,33.947,32.846s-9.1-6.116-10.692-11.864l-.179-.658-.67-.089a3.277,3.277,0,0,1-2.254-2.589,3.792,3.792,0,0,1,.268-2.824A1.5,1.5,0,0,1,21.045,14.208Z" transform="translate(-12.028)" fill="#ce0c3d"/>
            <path id="Path_46284" data-name="Path 46284" d="M44.557,48.795a12.638,12.638,0,0,1-4.788,5.1c-4.107,2.1-7.165,3.817-7.165,3.817l-.011-.011v-.034l-.033.022-.033-.022V57.7l-.011.011s-3.047-1.7-7.165-3.817a12.713,12.713,0,0,1-4.788-5.1c-6.083,2.478-10.324,8.147-10.324,13.114V72.2H54.881V61.908C54.881,56.953,50.629,51.272,44.557,48.795Z" transform="translate(-10.238 -12.199)" fill="#ce0c3d"/>
          </g>
        </g>
      </g>
    </g>
  </g>
</svg>
