<svg id="icon-visibility" xmlns="http://www.w3.org/2000/svg" width="44" height="44" viewBox="0 0 44 44">
  <path id="icon-visibility-2" data-name="icon-visibility" d="M20.873,10.968A11.694,11.694,0,0,0,10.5,4.5,11.7,11.7,0,0,0,.127,10.968a1.179,1.179,0,0,0,0,1.064A11.694,11.694,0,0,0,10.5,18.5a11.7,11.7,0,0,0,10.373-6.468A1.179,1.179,0,0,0,20.873,10.968ZM10.5,16.75a5.25,5.25,0,1,1,5.25-5.25A5.25,5.25,0,0,1,10.5,16.75ZM10.5,8a3.475,3.475,0,0,0-.923.138,1.745,1.745,0,0,1-2.439,2.439A3.492,3.492,0,1,0,10.5,8Z" transform="translate(12 10.5)" fill="#ce0c3d"/>
  <rect id="Rectangle_6" data-name="Rectangle 6" width="44" height="44" fill="#fff" opacity="0.163"/>
</svg>
