<svg id="pdf" xmlns="http://www.w3.org/2000/svg" width="18.75" height="25" viewBox="0 0 18.75 25">
  <g id="Group_74609" data-name="Group 74609">
    <g id="Group_74608" data-name="Group 74608">
      <g id="Group_74607" data-name="Group 74607">
        <path id="Path_205788" data-name="Path 205788" d="M22.347,5.361,17.139.153A.52.52,0,0,0,16.771,0H5.833A2.085,2.085,0,0,0,3.75,2.083V22.917A2.085,2.085,0,0,0,5.833,25H20.417A2.085,2.085,0,0,0,22.5,22.917V5.729A.52.52,0,0,0,22.347,5.361ZM17.292,1.778l3.43,3.43H18.333a1.043,1.043,0,0,1-1.042-1.042Zm4.167,21.138a1.043,1.043,0,0,1-1.042,1.042H5.833a1.043,1.043,0,0,1-1.042-1.042V2.083A1.043,1.043,0,0,1,5.833,1.042H16.25V4.167A2.085,2.085,0,0,0,18.333,6.25h3.125Z" transform="translate(-3.75)" fill="#ce0c3d"/>
        <path id="Path_205789" data-name="Path 205789" d="M16.406,16.956a15.1,15.1,0,0,1-1.246-1.075c-.4-.4-.75-.781-1.057-1.147a11.661,11.661,0,0,0,.689-2.651c0-1.729-.625-2.083-1.562-2.083-.713,0-1.562.37-1.562,2.133a4.994,4.994,0,0,0,1.27,2.817c-.206.63-.449,1.357-.722,2.176-.131.393-.274.757-.424,1.094-.123.054-.242.11-.357.167-.414.207-.807.393-1.172.566C8.6,19.742,7.5,20.263,7.5,21.291c0,.747.811,1.209,1.563,1.209.968,0,2.431-1.293,3.5-3.472a20.722,20.722,0,0,1,3.575-.964,5.975,5.975,0,0,0,2.3,1.312C19.729,19.375,20,18.628,20,18c0-1.231-1.407-1.231-2.083-1.231A12.337,12.337,0,0,0,16.406,16.956Zm-7.343,4.5a.823.823,0,0,1-.521-.167c0-.369,1.1-.891,2.166-1.4l.206-.1C10.132,20.932,9.358,21.458,9.063,21.458Zm3.646-9.325c0-1.092.339-1.092.521-1.092.368,0,.521,0,.521,1.042a8.351,8.351,0,0,1-.415,1.627A3.2,3.2,0,0,1,12.708,12.133Zm.4,5.6q.049-.136.095-.275c.193-.58.367-1.1.522-1.57q.324.357.7.731c.1.1.34.317.662.593C14.444,17.351,13.761,17.524,13.108,17.731ZM18.958,18c0,.234,0,.331-.483.334a3.839,3.839,0,0,1-.875-.5c.147-.016.255-.024.316-.024C18.686,17.813,18.9,17.888,18.958,18Z" transform="translate(-4.375 -1.667)" fill="#ce0c3d"/>
      </g>
    </g>
  </g>
</svg>
