<svg id="pen-Regular" xmlns="http://www.w3.org/2000/svg" width="22" height="22" viewBox="0 0 22 22">
  <rect id="Path" width="22" height="22" fill="rgba(255,255,255,0)"/>
  <path id="pen-Regular_1_" d="M797.962,1085.412a3.97,3.97,0,0,0-5.614,0l-9.655,9.655a2.5,2.5,0,0,0-.7,1.369l-.724,4.343a1.155,1.155,0,0,0,1.14,1.345,1.094,1.094,0,0,0,.189-.016l4.344-.724a2.5,2.5,0,0,0,1.368-.7l9.655-9.655a3.969,3.969,0,0,0,0-5.613Zm-10.627,14.3a1.136,1.136,0,0,1-.622.32l-4.041.673.673-4.04a1.137,1.137,0,0,1,.32-.621l7.409-7.409,3.669,3.668Zm9.655-9.655-1.274,1.274-3.669-3.668,1.274-1.274a2.594,2.594,0,1,1,3.668,3.668Z" transform="translate(-779.187 -1082.188)" fill="#2ecc71"/>
</svg>
