<svg xmlns="http://www.w3.org/2000/svg" width="100" height="134.364" viewBox="0 0 100 134.364">
  <g id="searc" transform="translate(-95 -272.636)">
    <g id="Group_16107" data-name="Group 16107" transform="translate(128.318 273.022)">
      <path id="Path_44261" data-name="Path 44261" d="M25.189,32.739l.9,15.852A2.492,2.492,0,0,0,28.346,51h0a2.47,2.47,0,0,0,2.54-2.286l1.65-15.884a2.1,2.1,0,0,0-.484-1.576,1.84,1.84,0,0,0-1.429-.657H27.01a1.836,1.836,0,0,0-1.34.659,2.088,2.088,0,0,0-.482,1.487Z" transform="translate(-25.184 -30.593)" fill="#ce0c3d"/>
      <path id="Path_44262" data-name="Path 44262" d="M30.594,43.647a2.728,2.728,0,0,1-3.5,1.9,3.061,3.061,0,0,1-1.754-3.791,2.729,2.729,0,0,1,3.5-1.9,2.848,2.848,0,0,1,1.6,1.5A3.226,3.226,0,0,1,30.594,43.647Z" transform="translate(-24.549 -11.721)" fill="#ce0c3d"/>
    </g>
    <g id="Group_74548" data-name="Group 74548" transform="translate(147.538 272.636) rotate(14)">
      <path id="Path_44261-2" data-name="Path 44261" d="M25.189,32.739l.9,15.852A2.492,2.492,0,0,0,28.346,51h0a2.47,2.47,0,0,0,2.54-2.286l1.65-15.884a2.1,2.1,0,0,0-.484-1.576,1.84,1.84,0,0,0-1.429-.657H27.01a1.836,1.836,0,0,0-1.34.659,2.088,2.088,0,0,0-.482,1.487Z" transform="translate(-25.184 -30.593)" fill="#ce0c3d"/>
      <path id="Path_44262-2" data-name="Path 44262" d="M30.594,43.647a2.728,2.728,0,0,1-3.5,1.9,3.061,3.061,0,0,1-1.754-3.791,2.729,2.729,0,0,1,3.5-1.9,2.848,2.848,0,0,1,1.6,1.5A3.226,3.226,0,0,1,30.594,43.647Z" transform="translate(-24.549 -11.721)" fill="#ce0c3d"/>
    </g>
    <g id="search-Regular" transform="translate(95 307)" opacity="0.5">
      <rect id="Path" width="100" height="100" fill="rgba(255,255,255,0)"/>
      <path id="search-Regular_1_" d="M333.583,1088.162,314.025,1068.6a34.431,34.431,0,1,0-4.421,4.421l19.558,19.558a3.126,3.126,0,0,0,4.421-4.421ZM259.5,1046.625a28.125,28.125,0,1,1,28.125,28.125A28.157,28.157,0,0,1,259.5,1046.625Z" transform="translate(-243.875 -1002.875)" fill="#ce0c3d"/>
    </g>
  </g>
</svg>
