<svg id="visa-light-large" xmlns="http://www.w3.org/2000/svg" width="70" height="44" viewBox="0 0 70 44">
  <rect id="card_bg" width="70" height="44" rx="4" fill="#f2f2f2"/>
  <path id="visa-logo" d="M29.638,9.52A20.764,20.764,0,0,1,25.1,9.03l.749-2a14.175,14.175,0,0,0,4.14.6h.11c1.24-.01,2.491-.3,2.491-.91.017-.392-.569-.7-2.16-1.15-1.563-.439-3.64-1.176-3.64-2.51,0-1.8,2.865-3.06,6.967-3.06a18.73,18.73,0,0,1,3.9.41l-.731,2a12.929,12.929,0,0,0-3.345-.432c-.255,0-.514.007-.768.022-1.2.091-1.742.453-1.742.77,0,.388.863.647,1.956.975,1.734.521,3.891,1.17,3.88,2.695L37,6.36c-.017,1.92-2.87,3.16-7.264,3.16Zm11.543-.08H36.792L43.046.87A2.186,2.186,0,0,1,44.787.19h3.484l3.378,9.249H47.784l-.5-1.38H42.034l-.853,1.38ZM45.327,2.69,43.132,6.16H46.6Zm-23.2,6.72H17.942L21.427.16h4.18L22.124,9.41ZM12.978,9.38H8.432L5.1,1.99c-.059-.351-.44-.661-.994-.81A27.088,27.088,0,0,0,0,.4L.105.13h7.09c.966,0,1.779.4,1.933.941L10.87,6.42,15.208.13h4.529l-6.758,9.25Z" transform="translate(9.16 17.225)" fill="#2a2a6c"/>
</svg>
