<svg xmlns="http://www.w3.org/2000/svg" xmlns:xlink="http://www.w3.org/1999/xlink" width="43" height="43" viewBox="0 0 43 43">
  <defs>
    <clipPath id="clip-path">
      <rect id="Rectangle_475" data-name="Rectangle 475" width="43" height="43" rx="6" transform="translate(30 335)" fill="#ce0c3d"/>
    </clipPath>
  </defs>
  <g id="Washing_" data-name="Washing " transform="translate(-30 -335)" clip-path="url(#clip-path)">
    <g id="Washing_2" data-name="Washing " transform="translate(33.583 335)">
      <path id="Path_46285" data-name="Path 46285" d="M32.25,0H3.583A3.587,3.587,0,0,0,0,3.583v34.4a2.15,2.15,0,0,0,2.15,2.15v2.15A.717.717,0,0,0,2.867,43h30.1a.717.717,0,0,0,.716-.717v-2.15a2.15,2.15,0,0,0,2.15-2.15V3.583A3.588,3.588,0,0,0,32.25,0ZM3.583,1.433H32.25a2.15,2.15,0,0,1,2.15,2.15V8.6H1.433V3.583a2.15,2.15,0,0,1,2.15-2.15ZM32.25,41.567H3.583V40.133H32.25ZM33.683,38.7H2.15a.717.717,0,0,1-.717-.717V10.033H34.4v27.95a.717.717,0,0,1-.717.717Zm0,0" fill="#ce0c3d"/>
      <path id="Path_46286" data-name="Path 46286" d="M3.583,7.167h8.6A.717.717,0,0,0,12.9,6.45V3.583a.717.717,0,0,0-.717-.717h-8.6a.717.717,0,0,0-.717.717V6.45a.717.717,0,0,0,.717.716ZM4.3,4.3h7.167V5.733H4.3Zm0,0" fill="#ce0c3d"/>
      <path id="Path_46287" data-name="Path 46287" d="M16.483,7.167a2.15,2.15,0,1,0-2.15-2.15,2.15,2.15,0,0,0,2.15,2.15Zm0-2.867a.717.717,0,1,1-.716.717A.717.717,0,0,1,16.483,4.3Zm0,0" fill="#ce0c3d"/>
      <path id="Path_46288" data-name="Path 46288" d="M22.216,7.167a2.15,2.15,0,1,0-2.15-2.15A2.15,2.15,0,0,0,22.216,7.167Zm0-2.867a.717.717,0,1,1-.716.717A.717.717,0,0,1,22.216,4.3Zm0,0" fill="#ce0c3d"/>
      <path id="Path_46289" data-name="Path 46289" d="M26.517,5.733H27.95a.717.717,0,0,0,0-1.433H26.517a.717.717,0,1,0,0,1.433Zm0,0" fill="#ce0c3d"/>
      <path id="Path_46290" data-name="Path 46290" d="M30.817,5.733H32.25a.717.717,0,1,0,0-1.433H30.817a.717.717,0,1,0,0,1.433Zm0,0" fill="#ce0c3d"/>
      <path id="Path_46291" data-name="Path 46291" d="M17.917,12.9A11.467,11.467,0,1,0,29.383,24.367,11.466,11.466,0,0,0,17.917,12.9Zm0,21.5A10.033,10.033,0,1,1,27.95,24.367,10.033,10.033,0,0,1,17.917,34.4Zm0,0" fill="#ce0c3d"/>
      <path id="Path_46292" data-name="Path 46292" d="M17.917,15.05A9.307,9.307,0,0,0,9.3,27.9c0,.014,0,.029.006.044s.019.028.027.045a9.31,9.31,0,0,0,17.573-1.211.277.277,0,0,0,.009-.036,9.281,9.281,0,0,0-9-11.69Zm0,1.433a7.865,7.865,0,0,1,7.692,9.589,11.063,11.063,0,0,0-1.1.43,6.5,6.5,0,0,1-3.01.731,4.841,4.841,0,0,1-2.546-.645,6.261,6.261,0,0,0-3.187-.788,18.826,18.826,0,0,0-5.344,1,7.874,7.874,0,0,1,7.493-10.32Zm0,15.767a7.889,7.889,0,0,1-6.926-4.121,17.076,17.076,0,0,1,4.776-.9,4.842,4.842,0,0,1,2.546.645,6.259,6.259,0,0,0,3.187.788,7.731,7.731,0,0,0,3.471-.8,7.884,7.884,0,0,1-7.054,4.385Zm0,0" fill="#ce0c3d"/>
    </g>
  </g>
</svg>
