<svg xmlns="http://www.w3.org/2000/svg" width="38" height="15.603" viewBox="0 0 38 15.603">
    <path id="Apple_Pay-Logo.wine" d="M6.943,2.012a2.334,2.334,0,0,1-1.871.883A2.647,2.647,0,0,1,5.741.958,2.79,2.79,0,0,1,7.6,0a2.818,2.818,0,0,1-.653,2.012m.646,1.024c-1.032-.059-1.915.586-2.4.586S3.937,3.066,3.121,3.08A3.049,3.049,0,0,0,.53,4.654C-.583,6.569.241,9.4,1.317,10.963c.527.772,1.158,1.618,1.989,1.588.787-.03,1.1-.512,2.049-.512s1.232.512,2.064.5c.861-.015,1.4-.772,1.93-1.544a6.77,6.77,0,0,0,.861-1.774A2.8,2.8,0,0,1,8.532,6.673,2.856,2.856,0,0,1,9.89,4.283a2.942,2.942,0,0,0-2.3-1.247M13.55.883V12.455h1.8V8.5h2.487A3.673,3.673,0,0,0,21.7,4.684a3.63,3.63,0,0,0-3.808-3.8Zm1.8,1.514h2.071a2.159,2.159,0,0,1,2.449,2.294,2.166,2.166,0,0,1-2.457,2.3H15.346Zm9.635,10.147a2.972,2.972,0,0,0,2.65-1.477h.037v1.388H29.33V6.7c0-1.67-1.336-2.746-3.392-2.746-1.908,0-3.318,1.091-3.37,2.591h1.618a1.577,1.577,0,0,1,1.7-1.18c1.1,0,1.715.512,1.715,1.455v.638l-2.242.134c-2.086.126-3.214.98-3.214,2.464A2.547,2.547,0,0,0,24.981,12.544Zm.482-1.373c-.958,0-1.566-.46-1.566-1.165,0-.727.586-1.151,1.707-1.217l2-.126v.653A1.952,1.952,0,0,1,25.463,11.171ZM31.55,15.6c1.752,0,2.576-.668,3.3-2.694L38,4.06H36.174L34.059,10.9h-.037L31.906,4.06H30.028l3.043,8.425L32.908,13a1.428,1.428,0,0,1-1.514,1.2c-.141,0-.416-.015-.527-.03v1.388a4.948,4.948,0,0,0,.683.045Z" transform="translate(0)"/>
</svg>