<svg id="Layer_1_1_" xmlns="http://www.w3.org/2000/svg" width="38" height="13.561" viewBox="0 0 38 13.561">
    <path id="Path_13" d="M6.157-13.351H4.213C3.3-10.8,1.75-6.571.9-4.251a3.667,3.667,0,0,1-.319.642H1.926A1.064,1.064,0,0,0,2.8-4.16a.909.909,0,0,0,.076-.152l.813-2.22h0C4.693-9.3,6.058-13.047,6.157-13.351" transform="translate(9.219 13.351)" fill="#929497"/>
    <path id="Path_14" d="M26.826-8.478l-.813,2.225a1.087,1.087,0,0,1-.941.694H23.726a3.489,3.489,0,0,0,.342-.694l.813-2.225H22.932l-.808,2.225a1.092,1.092,0,0,1-.941.694H19.827a3.767,3.767,0,0,0,.342-.694l.813-2.225H19.033l-.808,2.225a1.087,1.087,0,0,1-.941.694H11.055a3.4,3.4,0,0,0,.347-.68l.2-.571A1.789,1.789,0,0,0,9.923-9.452H7.707L7-7.508H9.224a.468.468,0,0,1,.442.694l-.214.571a1.071,1.071,0,0,1-.937.68h-3.2L4.6-3.614H24.378a4.143,4.143,0,0,0,3.585-2.629l.818-2.239Z" transform="translate(9.219 13.351)" fill="#ed7624"/>
    <path id="Path_15" d="M-4.07-3.609H-9.219l.708-1.949h5.154a1.106,1.106,0,0,0,.951-.694l.2-.552A.47.47,0,0,0-2.648-7.5h-3.2l.708-1.949h3.2C-.48-9.448.266-8.264-.262-6.8l-.2.552A4.188,4.188,0,0,1-4.07-3.609" transform="translate(9.219 13.351)" fill="#ed7624"/>
    <path id="Path_16" d="M4.593-1.388H4.355l-.09.242H4.5Z" transform="translate(9.219 13.351)" fill="#929497"/>
    <path id="Path_17" d="M5.1-.67a.41.41,0,0,1-.181.228A.544.544,0,0,1,4.674-.4h-.6A.41.41,0,0,1,3.8-.471q-.093-.086-.014-.3l.138-.366H3.68L3.542-.77c-.152.414,0,.623.471.623h.794A.488.488,0,0,0,5.273-.5l.238-.647H5.273Z" transform="translate(9.219 13.351)" fill="#929497"/>
    <path id="Path_18" d="M5.012-1.388H4.769l-.086.242h.238Z" transform="translate(9.219 13.351)" fill="#929497"/>
    <path id="Path_19" d="M6.657-.632a.571.571,0,0,1,.138-.214.3.3,0,0,1,.223-.1.151.151,0,0,1,.171.171l.247-.1a.292.292,0,0,0-.3-.285H7.108A.675.675,0,0,0,6.69-1a.854.854,0,0,0-.281.366A.547.547,0,0,0,6.371-.4H5.977A.267.267,0,0,1,5.8-.442c-.033-.033-.033-.1,0-.209l.338-.918H5.9L5.53-.556a.371.371,0,0,0-.014.285.231.231,0,0,0,.233.114H7.18l.09-.252H6.647a.284.284,0,0,1,0-.233" transform="translate(9.219 13.351)" fill="#929497"/>
    <path id="Path_20" d="M10.009-1.593H9.771l-.09.242h.238Z" transform="translate(9.219 13.351)" fill="#929497"/>
    <path id="Path_21" d="M9.733-1.165a.755.755,0,0,0-.68.5A.539.539,0,0,0,9.02-.4h-.6l.1-.257c.1-.285,0-.494-.276-.494a.746.746,0,0,0-.67.485c-.1.29.029.509.295.509H8.1a.347.347,0,0,1-.3.171L7.722.2A.626.626,0,0,0,8.33-.162H9.362a.749.749,0,0,0,.675-.5c.1-.285-.01-.514-.3-.514m-1.56.77H7.955c-.133,0-.181-.124-.133-.271A.364.364,0,0,1,8.15-.927c.128,0,.171.09.133.223Zm1.274.024c-.147,0-.2-.128-.143-.285a.387.387,0,0,1,.338-.281c.147,0,.2.124.143.29a.393.393,0,0,1-.338.276" transform="translate(9.219 13.351)" fill="#929497"/>
    <path id="Path_22" d="M14.236-.628a.6.6,0,0,1-.076.157.221.221,0,0,1-.181.071h-.552a.6.6,0,0,0,.143-.257l.333-.918H13.66l-.338.918a.5.5,0,0,1-.086.166.225.225,0,0,1-.181.076H12.69l.024-.062a.447.447,0,0,0,0-.366.306.306,0,0,0-.3-.147.667.667,0,0,0-.409.143.789.789,0,0,0-.266.366c0,.024-.019.048-.024.071h-.509c.138-.376.076-.613-.181-.713a.556.556,0,0,0-.119-.033h-.228L10.6-.932a1.085,1.085,0,0,1,.214.019c.2.048.257.214.152.5H10.17l-.09.247h1.65a.3.3,0,0,0,.323.181.7.7,0,0,0,.466-.181H13.96a.519.519,0,0,0,.514-.4l.366-1.018h-.247Zm-1.911.366a.3.3,0,0,1-.2.081c-.152,0-.2-.128-.143-.285a.518.518,0,0,1,.128-.19.3.3,0,0,1,.209-.086.147.147,0,0,1,.152.09.289.289,0,0,1-.014.2.482.482,0,0,1-.128.19" transform="translate(9.219 13.351)" fill="#929497"/>
    <path id="Path_23" d="M15.99-1.108a.556.556,0,0,0-.119-.033h-.228l-.081.223a1.085,1.085,0,0,1,.214.019c.2.048.257.214.152.5h-.789l-.09.247H16.09l.09-.247c.128-.376.067-.613-.19-.713" transform="translate(9.219 13.351)" fill="#929497"/>
    <path id="Path_24" d="M16.309-.147h.242l.518-1.417h-.242Z" transform="translate(9.219 13.351)" fill="#929497"/>
    <path id="Path_25" d="M19.87-.642c-.057.162-.152.242-.276.242h-.233a.591.591,0,0,0,.147-.266l.181-.48h-.242l-.181.5c-.057.162-.152.242-.276.242h-.228V-.414A.735.735,0,0,0,18.9-.67l.181-.48h-.262l-.181.485c-.062.176-.157.257-.281.257H17.9c.133-.366.076-.613-.181-.713a.556.556,0,0,0-.119-.033h-.228l-.081.223a1.085,1.085,0,0,1,.214.019c.2.048.257.214.152.5h-.794l-.09.247h2.758a.712.712,0,0,0,.613-.523l.176-.471h-.257Z" transform="translate(9.219 13.351)" fill="#929497"/>
    <path id="Path_26" d="M22.11-1.146h-.618a.8.8,0,0,0-.732.585l-.271.77h.247L21-.523c.086-.238.247-.385.409-.385h.181a.8.8,0,0,0-.157.257c-.1.285.014.509.309.509a.759.759,0,0,0,.675-.5c.1-.29-.01-.514-.3-.514m-.281.794c-.147,0-.2-.128-.143-.285a.387.387,0,0,1,.338-.281c.152,0,.2.124.143.29a.393.393,0,0,1-.338.276" transform="translate(9.219 13.351)" fill="#929497"/>
    <path id="Path_27" d="M24.943-1.588h-.238l-.09.242h.238Z" transform="translate(9.219 13.351)" fill="#929497"/>
    <path id="Path_28" d="M26.237-1.588H26l-.086.242h.238Z" transform="translate(9.219 13.351)" fill="#929497"/>
    <path id="Path_29" d="M25.833-1.146l-.181.514a.6.6,0,0,1-.076.157A.221.221,0,0,1,25.4-.4H25c.181-.5.076-.751-.295-.751a1.241,1.241,0,0,0-.785.38l.319-.794H24L23.574-.4h-.5a.267.267,0,0,1-.181-.038c-.033-.033-.033-.1,0-.209l.338-.918h-.238L22.623-.556a.351.351,0,0,0-.014.285.231.231,0,0,0,.233.114h2.515a.519.519,0,0,0,.514-.4l.219-.6Zm-1.1.746H23.76A1.342,1.342,0,0,1,24.6-.932c.209,0,.271.181.171.461a.224.224,0,0,1-.029.071" transform="translate(9.219 13.351)" fill="#929497"/>
</svg>
