<svg xmlns="http://www.w3.org/2000/svg" width="542.469" height="133.969" viewBox="0 0 542.469 133.969">
  <path id="path146" d="M275.688,1V37.75a36.818,36.818,0,0,0-14.312-3.219,29.873,29.873,0,0,0-16.5,4.813A32.472,32.472,0,0,0,233.188,52.75,43.181,43.181,0,0,0,229,71.938a48.479,48.479,0,0,0,1.906,14.094,30.689,30.689,0,0,0,5.594,10.75,24.452,24.452,0,0,0,8.875,6.844,27.483,27.483,0,0,0,11.469,2.344,28.112,28.112,0,0,0,7.813-1.312,104.987,104.987,0,0,0,11.5-4.375v4.344h19.063V1ZM58.406,12.625a57.422,57.422,0,1,0,57.406,57.406A57.4,57.4,0,0,0,58.406,12.625Zm378.219,1.344-19.531,6.969V35.563H408.5V47.031h8.594V84.719a34.914,34.914,0,0,0,1.125,9.531,14.8,14.8,0,0,0,3.594,6.5,14.539,14.539,0,0,0,6.563,3.625,36.538,36.538,0,0,0,9.719,1.125q5.169,0,18.531-3.5V91.156a64.991,64.991,0,0,1-9.25.875,17.11,17.11,0,0,1-6.5-1,5.977,5.977,0,0,1-3.281-3.156,15.852,15.852,0,0,1-.969-6.25V47.031h20V35.563h-20ZM178.906,34.188q-5.964,0-19.469,5.688V35.531H140.406v99.438h19.563V102.281a34.709,34.709,0,0,0,14.344,3.188,29.959,29.959,0,0,0,16.625-4.844A32.71,32.71,0,0,0,202.625,87.25a42.846,42.846,0,0,0,4.188-19.094,47.918,47.918,0,0,0-1.906-14.125,31.27,31.27,0,0,0-5.531-10.656,24.017,24.017,0,0,0-8.812-6.812A27.828,27.828,0,0,0,178.906,34.188Zm176.938,0a61.086,61.086,0,0,0-7.531.5q-4.011.5-9.75,1.688c-3.829.8-7.507,1.65-11.031,2.531V49.281a126.076,126.076,0,0,1,21.938-2.125c4.348,0,7.424.722,9.25,2.156s2.75,3.842,2.75,7.219v5.625c-6.221,0-12.139.288-17.75.813Q321.53,65,321.531,84.438a22.566,22.566,0,0,0,2.625,11,18.216,18.216,0,0,0,7.344,7.406,22.372,22.372,0,0,0,10.969,2.625,29.9,29.9,0,0,0,8-1.156A104.039,104.039,0,0,0,362,100.063v4.563h18.156V58.969c0-5.273-.432-9.37-1.344-12.312a14.877,14.877,0,0,0-4.5-7.094Q368.38,34.2,355.844,34.188Zm158.219,0a35.662,35.662,0,0,0-13.844,2.563,28.643,28.643,0,0,0-10.437,7.344,32.349,32.349,0,0,0-6.562,11.688,49.489,49.489,0,0,0-2.25,15.5c0,7.414,1.279,13.711,3.875,18.875a26.008,26.008,0,0,0,11.531,11.688q7.619,3.957,18.344,3.969,7.386,0,25.563-4.031V91.625A135.111,135.111,0,0,1,522.469,93q-8.118,0-12.937-1.906a12.928,12.928,0,0,1-7-6.125q-2.2-4.208-2.187-11.344h43.125c0-6.244-.106-10.709-.344-13.375a30.071,30.071,0,0,0-1.531-7.312q-2.751-9.234-9.719-14Q524.907,34.19,514.063,34.188Zm-487,1.344H46.625v43c0,4.909.929,8.37,2.813,10.344s5.141,2.938,9.781,2.938a55.562,55.562,0,0,0,11.156-1.281v-55H89.938v69.094H70.781v-4.5a92.258,92.258,0,0,1-12.906,4.75,39.424,39.424,0,0,1-9.906,1.281,23.357,23.357,0,0,1-9.281-1.906,17.55,17.55,0,0,1-6.906-4.969,18.371,18.371,0,0,1-3.687-7.406,50.908,50.908,0,0,1-1.031-11.5Zm485.844,9.281a11.79,11.79,0,0,1,6.719,1.719,9.489,9.489,0,0,1,3.594,5.625,41.156,41.156,0,0,1,1.094,10.531H500.344a32.882,32.882,0,0,1,1.313-10.031,10.851,10.851,0,0,1,4.156-5.937A12.477,12.477,0,0,1,512.906,44.813ZM268.625,46.844a32.968,32.968,0,0,1,7.063.719V90.688a61.386,61.386,0,0,1-8.812.813q-8.494,0-13.062-5.562c-3.048-3.7-4.594-9.054-4.594-16.062A30.72,30.72,0,0,1,251.5,57.438a17.177,17.177,0,0,1,6.688-7.906A19.4,19.4,0,0,1,268.625,46.844Zm-99.812,1.688a17.553,17.553,0,0,1,9.656,2.531,15.838,15.838,0,0,1,6.063,7.469,30.312,30.312,0,0,1,2.063,11.719,30.2,30.2,0,0,1-2.312,12.375,17.1,17.1,0,0,1-6.687,7.844,19.685,19.685,0,0,1-10.5,2.719,31.623,31.623,0,0,1-7.125-.812V49.438A44.692,44.692,0,0,1,168.813,48.531Zm192.656,23.75V91.563a35.347,35.347,0,0,1-8.812,1.094q-11.749,0-11.75-9.875c0-5.627,3.195-8.869,9.594-9.781C351.714,72.829,355.377,72.586,361.469,72.281Z" transform="translate(-1 -1)" fill="#bd2b41"/>
</svg>
