<svg xmlns="http://www.w3.org/2000/svg" width="26.45" height="18.71" viewBox="0 0 26.45 18.71">
    <path id="credit-card-payment-icon" d="M2.413,13.872H6.072v.981H2.413ZM18.64,10.762a2.043,2.043,0,0,1,1.694.957,2,2,0,0,1,2.367-.83,2.447,2.447,0,0,1,0,4.473,2,2,0,0,1-2.367-.83,1.989,1.989,0,0,1-2.574.723,2.432,2.432,0,0,1-1.186-2.64,2.183,2.183,0,0,1,2.067-1.852Zm6.345,7.005a.669.669,0,0,0,.62-.672V8.132H.834V17.1a.669.669,0,0,0,.176.478.589.589,0,0,0,.43.2ZM1.445,18.7A1.344,1.344,0,0,1,.42,18.224a1.664,1.664,0,0,1-.43-1.136V1.612A1.7,1.7,0,0,1,.415.469,1.376,1.376,0,0,1,1.445,0h23.54A1.542,1.542,0,0,1,26.44,1.612V17.1a1.69,1.69,0,0,1-.43,1.136,1.4,1.4,0,0,1-1.027.478H1.443ZM.834,3.482H25.6V1.61a.694.694,0,0,0-.187-.478.578.578,0,0,0-.43-.208H1.445a.576.576,0,0,0-.43.208.7.7,0,0,0-.176.478V3.482ZM7.761,13.872H13.85v.981H7.761Z" transform="translate(0.01 0)" fill="#ce0c3d" fill-rule="evenodd"/>
</svg>
