<svg xmlns="http://www.w3.org/2000/svg" width="70" height="70" viewBox="0 0 70 70">    <defs>        <clipPath id="clip-path">            <rect id="Rectangle_475" width="47" height="50" rx="6" transform="translate(30 335)"                fill="#ce0c3d" />        </clipPath>    </defs>    <g id="Group_74618" transform="translate(-16 -321)">        <rect id="Rectangle_474" width="70" height="70" rx="6" transform="translate(16 321)"            fill="#ce0c3d" opacity="0.05" />        <g id="Cooking_" transform="translate(0 -4)" clip-path="url(#clip-path)">            <g id="Cooking_icon" transform="translate(30 339.818)">                <path id="Path_46300"                    d="M8.091,42.089a16.5,16.5,0,0,0,6,1.1,18.922,18.922,0,0,0,6.556-1.2,18.98,18.98,0,0,0,9.9-8.212,14.338,14.338,0,0,0,1.466-11.71,2.179,2.179,0,0,0-.083-.211,2.436,2.436,0,0,0,2.16.4l11.656-6.017a2.3,2.3,0,0,0,1.13-1.354,2.48,2.48,0,0,0-.114-1.807l-.172-.366a2.142,2.142,0,0,0-2.876-1.088L32.741,16.961a2.736,2.736,0,0,0-1.9,2.663,2.878,2.878,0,0,0,.147.91l-.216.153c-2.881-1.533-9.87-.3-16.4,2.119q-.575.213-1.147.439a5.7,5.7,0,0,1,1.247-5.024l-1.04-1.1a7.674,7.674,0,0,0-1.559,2.858,6.9,6.9,0,0,0-.029,3.834c-1.175.5-2.3,1.027-3.372,1.575a22.9,22.9,0,0,1-.564-6.5,2.7,2.7,0,0,0-1.171-2.373,2.359,2.359,0,0,0-2.519-.067,2.677,2.677,0,0,0-1.281,2.308V24.28a.411.411,0,0,1-.4.422,1.811,1.811,0,0,0-1.323.585A2.051,2.051,0,0,0,.675,26.7a13.315,13.315,0,0,0,.63,3.723C.181,31.7-.221,32.861.11,33.874a13.185,13.185,0,0,0,7.981,8.215Zm12.073-1.574A16.306,16.306,0,0,1,8.6,40.622a12.021,12.021,0,0,1-6.022-4.915,10.67,10.67,0,0,0,2.332.223q.675,0,1.441-.056a39.867,39.867,0,0,0,8.777-1.837c.064.011,1.815-.6,2.628-.9A54.886,54.886,0,0,0,23.2,30.788l.037-.019a36.092,36.092,0,0,0,5.054-3.016,14.283,14.283,0,0,0,2.858-2.619c.553,6.239-3.927,12.769-10.986,15.38Zm7.645-15.722c-.155,1.4-.413,1.689-.423,1.7l.014.015c-.608.44-1.275.88-1.992,1.313a10.574,10.574,0,0,0,.936-3.217.76.76,0,0,1,.735-.684.716.716,0,0,1,.549.262.814.814,0,0,1,.181.61ZM44.323,13.052a.714.714,0,0,1,.957.363l.172.366a.827.827,0,0,1,.037.6.767.767,0,0,1-.38.451l-9.128,4.73a2.8,2.8,0,0,0-.9-2.024Zm-10.91,5.4a1.108,1.108,0,0,1,1.043.792,1.216,1.216,0,0,1-.37,1.305l-.4.209a.983.983,0,0,1-.4.028l.172-.122a.812.812,0,0,0,.2-1.083.708.708,0,0,0-1.018-.217l-.326.231a1.137,1.137,0,0,1,1.1-1.144ZM13.389,26.765l1.128-1a7.9,7.9,0,0,1-.716-1.08c.35-.138.7-.272,1.056-.4a42.393,42.393,0,0,1,11.023-2.654,11.484,11.484,0,0,1,3.506.177c.7.179,1.137.455,1.242.777s-.08.829-.521,1.429a7.949,7.949,0,0,1-.838.947,2.32,2.32,0,0,0-1.926-2.612,2.24,2.24,0,0,0-2.455,2.049,8.5,8.5,0,0,1-2.449,5.047,53.68,53.68,0,0,1-5.171,2.219q-1.124.416-2.232.774a8.058,8.058,0,0,1-6.1-5.551c1.1-.568,2.262-1.115,3.477-1.631a9.417,9.417,0,0,0,.976,1.513ZM2.258,26.39a.383.383,0,0,1,.282-.125A1.93,1.93,0,0,0,4.406,24.28V18.755a1.054,1.054,0,0,1,1.019-1.084.991.991,0,0,1,.738.337,1.125,1.125,0,0,1,.279.8,22.7,22.7,0,0,0,1.121,8.627,10.971,10.971,0,0,0,2.7,4.251,8.779,8.779,0,0,0,2.188,1.507,35.681,35.681,0,0,1-5.11,1.013l-.613-.12a5,5,0,0,1-3.7-3.276,11.47,11.47,0,0,1-.884-4.123.432.432,0,0,1,.115-.3ZM1.5,33.361a1.731,1.731,0,0,1,.458-1.34A7.424,7.424,0,0,0,3.7,34.3a6.73,6.73,0,0,1-.959-.166c-.7-.179-1.136-.455-1.242-.776h0Z"                    transform="translate(0.002 -2.828)" fill="#ce0c3d" />                <path id="Path_46301"                    d="M6.234,8.734a2.277,2.277,0,0,0-2.2,2.344,2.277,2.277,0,0,0,2.2,2.344,2.277,2.277,0,0,0,2.2-2.344,2.279,2.279,0,0,0-2.2-2.344Zm0,3.125a.783.783,0,1,1,.734-.781.759.759,0,0,1-.734.781Z"                    transform="translate(0.377 -3.265)" fill="#ce0c3d" />                <path id="Path_46302"                    d="M13.14,6.375a2.277,2.277,0,0,0-2.2-2.344,2.277,2.277,0,0,0-2.2,2.344,2.277,2.277,0,0,0,2.2,2.344A2.279,2.279,0,0,0,13.14,6.375Zm-2.937,0a.736.736,0,1,1,.734.781.759.759,0,0,1-.734-.781Z"                    transform="translate(0.815 -4.031)" fill="#ce0c3d" />                <path id="Path_46303" d="M8.734,13.437H10.2V15H8.734Z"                    transform="translate(0.815 -2.5)" fill="#ce0c3d" />                <path id="Path_46304" d="M8.062,19.484H9.531v1.562H8.062Z"                    transform="translate(0.752 -1.516)" fill="#ce0c3d" />                <path id="Path_46305" d="M12.093,25.53h1.469v1.562H12.093Z"                    transform="translate(1.127 -0.531)" fill="#ce0c3d" />                <path id="Path_46306" d="M1.344,12.765H2.812v1.562H1.344Z"                    transform="translate(0.127 -2.609)" fill="#ce0c3d" />                <path id="Path_46307"                    d="M7.233,31.323l.815-1.3c-1.795-1.273-1.874-2.446-1.876-2.495a.157.157,0,0,1,0,.02H4.7c0,.2.071,2.031,2.53,3.775Z"                    transform="translate(0.44 -0.206)" fill="#ce0c3d" />                <path id="Path_46308"                    d="M13.853,10.734a9.87,9.87,0,0,1,1.026-1.371l-1.039-1.1c-.1.105-2.418,2.6-2.418,5.24H12.89a5.492,5.492,0,0,1,.963-2.765Z"                    transform="translate(1.065 -3.343)" fill="#ce0c3d" />            </g>        </g>    </g></svg>