<svg id="Group_74622" data-name="Group 74622" xmlns="http://www.w3.org/2000/svg" width="25" height="25" viewBox="0 0 25 25">
    <rect id="Path" width="25" height="25" rx="3" fill="#ce0c3d" opacity="0.1"/>
    <path id="video-Light_1_" d="M560.358,644.833a1.772,1.772,0,0,0-1.818.085l-3.5,2.326v-.057a4.693,4.693,0,0,0-4.687-4.687h-4.167a4.693,4.693,0,0,0-4.687,4.688v4.167a4.693,4.693,0,0,0,4.688,4.688h4.167a4.693,4.693,0,0,0,4.688-4.687V651.3l3.5,2.326a1.77,1.77,0,0,0,2.75-1.475v-5.753A1.765,1.765,0,0,0,560.358,644.833ZM554,651.354A3.65,3.65,0,0,1,550.354,655h-4.167a3.65,3.65,0,0,1-3.646-3.646v-4.167a3.65,3.65,0,0,1,3.646-3.646h4.167A3.65,3.65,0,0,1,554,647.188Zm6.25.793a.729.729,0,0,1-1.132.607l-4.076-2.709v-1.55l4.075-2.709a.729.729,0,0,1,1.133.607v5.754Z" transform="translate(-538.896 -636.771)" fill="#ce0c3d"/>
</svg>
